<svg width="341" height="130" viewBox="0 0 341 130" fill="none" xmlns="http://www.w3.org/2000/svg">
<rect x="161" y="73" width="20" height="20" stroke="#0C0C0C"/>
<rect x="241" y="73" width="20" height="20" fill="#8B49F7" fill-opacity="0.3" stroke="#0C0C0C"/>
<rect x="1" y="13" width="20" height="20" fill="#8B49F7" fill-opacity="0.3" stroke="#0C0C0C"/>
<rect x="81" y="73" width="20" height="20" stroke="#0C0C0C"/>
<rect x="1" y="73" width="20" height="20" fill="#8B49F7" fill-opacity="0.3" stroke="#0C0C0C"/>
<rect x="321" y="13" width="20" height="20" fill="#8B49F7" fill-opacity="0.3" stroke="#0C0C0C"/>
<rect x="181" y="13" width="20" height="20" stroke="#0C0C0C"/>
<rect x="181" y="73" width="20" height="20" stroke="#0C0C0C"/>
<rect x="261" y="13" width="20" height="20" fill="#8B49F7" fill-opacity="0.3" stroke="#0C0C0C"/>
<rect x="261" y="73" width="20" height="20" fill="#8B49F7" fill-opacity="0.3" stroke="#0C0C0C"/>
<rect x="101" y="13" width="20" height="20" fill="#8B49F7" fill-opacity="0.3" stroke="#0C0C0C"/>
<rect x="101" y="73" width="20" height="20" fill="#8B49F7" fill-opacity="0.3" stroke="#0C0C0C"/>
<rect x="341" y="13" width="20" height="20" fill="#8B49F7" fill-opacity="0.3" stroke="#0C0C0C"/>
<rect x="341" y="73" width="20" height="20" fill="#8B49F7" fill-opacity="0.3" stroke="#0C0C0C"/>
<rect x="181" y="33" width="20" height="20" fill="#8B49F7" fill-opacity="0.3" stroke="#0C0C0C"/>
<rect x="181" y="93" width="20" height="20" fill="#8B49F7" fill-opacity="0.3" stroke="#0C0C0C"/>
<rect x="261" y="33" width="20" height="20" stroke="#0C0C0C"/>
<rect x="261" y="113" width="20" height="20" stroke="#0C0C0C"/>
<rect x="101" y="33" width="20" height="20" stroke="#0C0C0C"/>
<rect x="21" y="33" width="20" height="20" stroke="#0C0C0C"/>
<rect x="101" y="93" width="20" height="20" stroke="#0C0C0C"/>
<rect x="21" y="93" width="20" height="20" fill="#8B49F7" fill-opacity="0.3" stroke="#0C0C0C"/>
<rect x="341" y="33" width="20" height="20" fill="#8B49F7" fill-opacity="0.3" stroke="#0C0C0C"/>
<rect x="341" y="93" width="20" height="20" fill="#8B49F7" fill-opacity="0.3" stroke="#0C0C0C"/>
<rect x="161" y="33" width="20" height="20" stroke="#0C0C0C"/>
<rect x="241" y="33" width="20" height="20" fill="#8B49F7" fill-opacity="0.3" stroke="#0C0C0C"/>
<rect x="241" y="93" width="20" height="20" stroke="#0C0C0C"/>
<rect x="241" y="113" width="20" height="20" fill="#8B49F7" fill-opacity="0.3" stroke="#0C0C0C"/>
<rect x="81" y="33" width="20" height="20" fill="#8B49F7" fill-opacity="0.3" stroke="#0C0C0C"/>
<rect x="1" y="33" width="20" height="20" fill="#8B49F7" fill-opacity="0.3" stroke="#0C0C0C"/>
<rect x="81" y="93" width="20" height="20" stroke="#0C0C0C"/>
<rect x="1" y="93" width="20" height="20" fill="#8B49F7" fill-opacity="0.3" stroke="#0C0C0C"/>
<rect x="1" y="113" width="20" height="20" fill="#8B49F7" fill-opacity="0.3" stroke="#0C0C0C"/>
<rect x="321" y="93" width="20" height="20" fill="#8B49F7" fill-opacity="0.3" stroke="#0C0C0C"/>
<rect x="321" y="113" width="20" height="20" fill="#8B49F7" fill-opacity="0.3" stroke="#0C0C0C"/>
<rect x="201" y="93" width="20" height="20" stroke="#0C0C0C"/>
<rect x="281" y="33" width="20" height="20" fill="#8B49F7" fill-opacity="0.3" stroke="#0C0C0C"/>
<rect x="281" y="113" width="20" height="20" stroke="#0C0C0C"/>
<rect x="121" y="93" width="20" height="20" fill="#8B49F7" fill-opacity="0.3" stroke="#0C0C0C"/>
<rect x="121" y="113" width="20" height="20" fill="#8B49F7" fill-opacity="0.3" stroke="#0C0C0C"/>
<rect x="201" y="73" width="20" height="20" fill="#8B49F7" fill-opacity="0.3" stroke="#0C0C0C"/>
<rect x="281" y="13" width="20" height="20" stroke="#0C0C0C"/>
<rect x="121" y="73" width="20" height="20" stroke="#0C0C0C"/>
<rect x="221" y="13" width="20" height="20" stroke="#0C0C0C"/>
<rect x="301" y="73" width="20" height="20" fill="#8B49F7" fill-opacity="0.3" stroke="#0C0C0C"/>
<rect x="141" y="13" width="20" height="20" stroke="#0C0C0C"/>
<rect x="61" y="73" width="20" height="20" fill="#8B49F7" fill-opacity="0.3" stroke="#0C0C0C"/>
<rect x="221" y="33" width="20" height="20" fill="#8B49F7" fill-opacity="0.3" stroke="#0C0C0C"/>
<rect x="221" y="113" width="20" height="20" stroke="#0C0C0C"/>
<rect x="301" y="33" width="20" height="20" fill="#8B49F7" fill-opacity="0.3" stroke="#0C0C0C"/>
<rect x="301" y="93" width="20" height="20" stroke="#0C0C0C"/>
<rect x="301" y="113" width="20" height="20" fill="#8B49F7" fill-opacity="0.3" stroke="#0C0C0C"/>
<rect x="141" y="33" width="20" height="20" stroke="#0C0C0C"/>
<rect x="61" y="33" width="20" height="20" fill="#8B49F7" fill-opacity="0.3" stroke="#0C0C0C"/>
<rect x="141" y="113" width="20" height="20" stroke="#0C0C0C"/>
<rect x="221" y="-7" width="20" height="20" fill="#8B49F7" fill-opacity="0.3" stroke="#0C0C0C"/>
<rect x="221" y="53" width="20" height="20" fill="#8B49F7" fill-opacity="0.3" stroke="#0C0C0C"/>
<rect x="301" y="53" width="20" height="20" stroke="#0C0C0C"/>
<rect x="141" y="-7" width="20" height="20" fill="#8B49F7" fill-opacity="0.3" stroke="#0C0C0C"/>
<rect x="201" y="-7" width="20" height="20" fill="#8B49F7" fill-opacity="0.3" stroke="#0C0C0C"/>
<rect x="201" y="53" width="20" height="20" stroke="#0C0C0C"/>
<rect x="281" y="-7" width="20" height="20" fill="#8B49F7" fill-opacity="0.3" stroke="#0C0C0C"/>
<rect x="121" y="-7" width="20" height="20" stroke="#0C0C0C"/>
<rect x="121" y="53" width="20" height="20" fill="#8B49F7" fill-opacity="0.3" stroke="#0C0C0C"/>
<rect x="41" y="53" width="20" height="20" fill="#8B49F7" fill-opacity="0.3" stroke="#0C0C0C"/>
<rect x="101" y="-7" width="20" height="20" fill="#8B49F7" fill-opacity="0.3" stroke="#0C0C0C"/>
<rect x="21" y="-7" width="20" height="20" fill="#8B49F7" fill-opacity="0.3" stroke="#0C0C0C"/>
<rect x="21" y="53" width="20" height="20" fill="#8B49F7" fill-opacity="0.3" stroke="#0C0C0C"/>
<rect x="341" y="-7" width="20" height="20" fill="#8B49F7" fill-opacity="0.3" stroke="#0C0C0C"/>
<rect x="341" y="53" width="20" height="20" fill="#8B49F7" fill-opacity="0.3" stroke="#0C0C0C"/>
<rect x="81" y="-7" width="20" height="20" fill="#8B49F7" fill-opacity="0.3" stroke="#0C0C0C"/>
<rect x="1" y="-7" width="20" height="20" fill="#8B49F7" fill-opacity="0.3" stroke="#0C0C0C"/>
<rect x="1" y="53" width="20" height="20" fill="#8B49F7" fill-opacity="0.3" stroke="#0C0C0C"/>
<rect x="321" y="-7" width="20" height="20" stroke="#0C0C0C"/>
<rect x="121" y="33" width="20" height="20" fill="#8B49F7" fill-opacity="0.3" stroke="#0C0C0C"/>
<rect x="61" y="-7" width="20" height="20" fill="#8B49F7" fill-opacity="0.3" stroke="#0C0C0C"/>
<g filter="url(#filter0_f_2559_316)">
<rect x="241" y="53" width="20" height="20" fill="#8B49F7" fill-opacity="0.3"/>
<rect x="241" y="53" width="20" height="20" stroke="#0C0C0C"/>
</g>
<defs>
<filter id="filter0_f_2559_316" x="239.5" y="51.5" width="23" height="23" filterUnits="userSpaceOnUse" color-interpolation-filters="sRGB">
<feFlood flood-opacity="0" result="BackgroundImageFix"/>
<feBlend mode="normal" in="SourceGraphic" in2="BackgroundImageFix" result="shape"/>
<feGaussianBlur stdDeviation="0.5" result="effect1_foregroundBlur_2559_316"/>
</filter>
</defs>
</svg>
