<svg width="309" height="111" viewBox="0 0 309 111" fill="none" xmlns="http://www.w3.org/2000/svg">
<circle cx="27.5" cy="1.5" r="1.5" fill="#FFE7D8"/>
<circle cx="1.5" cy="49.5" r="1.5" fill="#FFE7D8"/>
<circle cx="27.5" cy="25.5" r="1.5" fill="#FFE7D8"/>
<circle cx="1.5" cy="25.5" r="1.5" fill="#FFE7D8"/>
<circle cx="27.5" cy="97.5" r="1.5" fill="#FFE7D8"/>
<circle cx="27.5" cy="61.5" r="1.5" fill="#FFE7D8"/>
<circle cx="27.5" cy="37.5" r="1.5" fill="#FFE7D8"/>
<circle cx="1.5" cy="37.5" r="1.5" fill="#FFE7D8"/>
<circle cx="27.5" cy="85.5" r="1.5" fill="#FFE7D8"/>
<circle cx="1.5" cy="85.5" r="1.5" fill="#FFE7D8"/>
<circle cx="1.5" cy="109.5" r="1.5" fill="#FFE7D8"/>
<circle cx="195.5" cy="49.5" r="1.5" fill="#FFE7D8"/>
<circle cx="195.5" cy="25.5" r="1.5" fill="#FFE7D8"/>
<circle cx="195.5" cy="73.5" r="1.5" fill="#FFF4ED"/>
<circle cx="195.5" cy="97.5" r="1.5" fill="#FFF4ED"/>
<circle cx="195.5" cy="37.5" r="1.5" fill="#FFE7D8"/>
<circle cx="195.5" cy="109.5" r="1.5" fill="#FFE7D8"/>
<circle cx="111.5" cy="1.5" r="1.5" fill="#FFE7D8"/>
<circle cx="111.5" cy="25.5" r="1.5" fill="#FFE7D8"/>
<circle cx="111.5" cy="73.5" r="1.5" fill="#FFE7D8"/>
<circle cx="111.5" cy="13.5" r="1.5" fill="#FFE7D8"/>
<circle cx="111.5" cy="61.5" r="1.5" fill="#FFE7D8"/>
<circle cx="111.5" cy="37.5" r="1.5" fill="#FFE7D8"/>
<circle cx="111.5" cy="109.5" r="1.5" fill="#FFE7D8"/>
<circle cx="279.5" cy="1.5" r="1.5" fill="#FFE7D8"/>
<circle cx="279.5" cy="49.5" r="1.5" fill="#FFE7D8"/>
<circle cx="279.5" cy="25.5" r="1.5" fill="#FFE7D8"/>
<circle cx="279.5" cy="61.5" r="1.5" fill="#FFE7D8"/>
<circle cx="279.5" cy="37.5" r="1.5" fill="#FFF4ED"/>
<circle cx="279.5" cy="85.5" r="1.5" fill="#FFE7D8"/>
<circle cx="279.5" cy="109.5" r="1.5" fill="#FFE7D8"/>
<circle cx="69.5" cy="73.5" r="1.5" fill="#FFE7D8"/>
<circle cx="69.5" cy="97.5" r="1.5" fill="#FFE7D8"/>
<circle cx="69.5" cy="13.5" r="1.5" fill="#FFE7D8"/>
<circle cx="69.5" cy="61.5" r="1.5" fill="#FFE7D8"/>
<circle cx="69.5" cy="37.5" r="1.5" fill="#FFE7D8"/>
<circle cx="69.5" cy="85.5" r="1.5" fill="#FFE7D8"/>
<circle cx="69.5" cy="109.5" r="1.5" fill="#FFE7D8"/>
<circle cx="237.5" cy="1.5" r="1.5" fill="#FFE7D8"/>
<circle cx="237.5" cy="49.5" r="1.5" fill="#FFE7D8"/>
<circle cx="237.5" cy="25.5" r="1.5" fill="#FFF4ED"/>
<circle cx="237.5" cy="73.5" r="1.5" fill="#FFE7D8"/>
<circle cx="237.5" cy="97.5" r="1.5" fill="#FFE7D8"/>
<circle cx="237.5" cy="13.5" r="1.5" fill="#FFE7D8"/>
<circle cx="237.5" cy="109.5" r="1.5" fill="#FFE7D8"/>
<circle cx="153.5" cy="1.5" r="1.5" fill="#FFE7D8"/>
<circle cx="153.5" cy="25.5" r="1.5" fill="#FFE7D8"/>
<circle cx="153.5" cy="73.5" r="1.5" fill="#FFE7D8"/>
<circle cx="153.5" cy="61.5" r="1.5" fill="#FFE7D8"/>
<circle cx="153.5" cy="37.5" r="1.5" fill="#FFE7D8"/>
<circle cx="153.5" cy="85.5" r="1.5" fill="#FFE7D8"/>
<circle cx="15.5" cy="1.5" r="1.5" fill="#FFE7D8"/>
<circle cx="41.5" cy="73.5" r="1.5" fill="#FFE7D8"/>
<circle cx="15.5" cy="73.5" r="1.5" fill="#FFE7D8"/>
<circle cx="41.5" cy="97.5" r="1.5" fill="#FFE7D8"/>
<circle cx="15.5" cy="97.5" r="1.5" fill="#FFE7D8"/>
<circle cx="41.5" cy="13.5" r="1.5" fill="#FFE7D8"/>
<circle cx="15.5" cy="13.5" r="1.5" fill="#FFE7D8"/>
<circle cx="15.5" cy="61.5" r="1.5" fill="#FFE7D8"/>
<circle cx="41.5" cy="37.5" r="1.5" fill="#FFE7D8"/>
<circle cx="15.5" cy="37.5" r="1.5" fill="#FFE7D8"/>
<circle cx="41.5" cy="109.5" r="1.5" fill="#FFE7D8"/>
<circle cx="209.5" cy="1.5" r="1.5" fill="#FFE7D8"/>
<circle cx="209.5" cy="25.5" r="1.5" fill="#FFE7D8"/>
<circle cx="209.5" cy="73.5" r="1.5" fill="#FFE7D8"/>
<circle cx="209.5" cy="13.5" r="1.5" fill="#FFF4ED"/>
<circle cx="209.5" cy="37.5" r="1.5" fill="#FFF4ED"/>
<circle cx="209.5" cy="85.5" r="1.5" fill="#FFE7D8"/>
<circle cx="209.5" cy="109.5" r="1.5" fill="#FFE7D8"/>
<circle cx="125.5" cy="25.5" r="1.5" fill="#FFE7D8"/>
<circle cx="125.5" cy="73.5" r="1.5" fill="#FFE7D8"/>
<circle cx="125.5" cy="97.5" r="1.5" fill="#FFE7D8"/>
<circle cx="125.5" cy="61.5" r="1.5" fill="#FFE7D8"/>
<circle cx="125.5" cy="85.5" r="1.5" fill="#FFE7D8"/>
<circle cx="125.5" cy="109.5" r="1.5" fill="#FFE7D8"/>
<circle cx="293.5" cy="1.5" r="1.5" fill="#FFE7D8"/>
<circle cx="293.5" cy="49.5" r="1.5" fill="#FFE7D8"/>
<circle cx="293.5" cy="25.5" r="1.5" fill="#FFF4ED"/>
<circle cx="293.5" cy="97.5" r="1.5" fill="#FFE7D8"/>
<circle cx="293.5" cy="13.5" r="1.5" fill="#FFE7D8"/>
<circle cx="293.5" cy="61.5" r="1.5" fill="#FFF4ED"/>
<circle cx="293.5" cy="85.5" r="1.5" fill="#FFE7D8"/>
<circle cx="83.5" cy="1.5" r="1.5" fill="#FFE7D8"/>
<circle cx="83.5" cy="49.5" r="1.5" fill="#FFE7D8"/>
<circle cx="83.5" cy="25.5" r="1.5" fill="#FFE7D8"/>
<circle cx="83.5" cy="73.5" r="1.5" fill="#FFE7D8"/>
<circle cx="83.5" cy="13.5" r="1.5" fill="#FFE7D8"/>
<circle cx="83.5" cy="61.5" r="1.5" fill="#FFE7D8"/>
<circle cx="83.5" cy="37.5" r="1.5" fill="#FFE7D8"/>
<circle cx="251.5" cy="49.5" r="1.5" fill="#FFE7D8"/>
<circle cx="251.5" cy="25.5" r="1.5" fill="#FFE7D8"/>
<circle cx="251.5" cy="13.5" r="1.5" fill="#FFE7D8"/>
<circle cx="251.5" cy="61.5" r="1.5" fill="#FFF4ED"/>
<circle cx="251.5" cy="37.5" r="1.5" fill="#FFE7D8"/>
<circle cx="251.5" cy="85.5" r="1.5" fill="#FFE7D8"/>
<circle cx="167.5" cy="1.5" r="1.5" fill="#FFE7D8"/>
<circle cx="167.5" cy="49.5" r="1.5" fill="#FFE7D8"/>
<circle cx="167.5" cy="25.5" r="1.5" fill="#FFE7D8"/>
<circle cx="167.5" cy="97.5" r="1.5" fill="#FFE7D8"/>
<circle cx="167.5" cy="61.5" r="1.5" fill="#FFE7D8"/>
<circle cx="167.5" cy="85.5" r="1.5" fill="#FFE7D8"/>
<circle cx="167.5" cy="109.5" r="1.5" fill="#FFE7D8"/>
<circle cx="55.5" cy="1.5" r="1.5" fill="#FFE7D8"/>
<circle cx="55.5" cy="49.5" r="1.5" fill="#FFE7D8"/>
<circle cx="55.5" cy="13.5" r="1.5" fill="#FFE7D8"/>
<circle cx="55.5" cy="61.5" r="1.5" fill="#FFE7D8"/>
<circle cx="55.5" cy="37.5" r="1.5" fill="#FFE7D8"/>
<circle cx="55.5" cy="85.5" r="1.5" fill="#FFE7D8"/>
<circle cx="55.5" cy="109.5" r="1.5" fill="#FFE7D8"/>
<circle cx="223.5" cy="49.5" r="1.5" fill="#FFE7D8"/>
<circle cx="223.5" cy="97.5" r="1.5" fill="#FFE7D8"/>
<circle cx="223.5" cy="13.5" r="1.5" fill="#FFE7D8"/>
<circle cx="223.5" cy="61.5" r="1.5" fill="#FFE7D8"/>
<circle cx="223.5" cy="37.5" r="1.5" fill="#FFE7D8"/>
<circle cx="223.5" cy="85.5" r="1.5" fill="#FFF4ED"/>
<circle cx="139.5" cy="1.5" r="1.5" fill="#FFE7D8"/>
<circle cx="139.5" cy="49.5" r="1.5" fill="#FFE7D8"/>
<circle cx="139.5" cy="25.5" r="1.5" fill="#FFE7D8"/>
<circle cx="139.5" cy="13.5" r="1.5" fill="#FFE7D8"/>
<circle cx="139.5" cy="61.5" r="1.5" fill="#FFE7D8"/>
<circle cx="139.5" cy="37.5" r="1.5" fill="#FFE7D8"/>
<circle cx="139.5" cy="109.5" r="1.5" fill="#FFE7D8"/>
<circle cx="307.5" cy="1.5" r="1.5" fill="#FFE7D8"/>
<circle cx="307.5" cy="49.5" r="1.5" fill="#FFE7D8"/>
<circle cx="307.5" cy="73.5" r="1.5" fill="#FFE7D8"/>
<circle cx="307.5" cy="97.5" r="1.5" fill="#FFE7D8"/>
<circle cx="307.5" cy="13.5" r="1.5" fill="#FFE7D8"/>
<circle cx="307.5" cy="85.5" r="1.5" fill="#FFF4ED"/>
<circle cx="307.5" cy="109.5" r="1.5" fill="#FFE7D8"/>
<circle cx="97.5" cy="1.5" r="1.5" fill="#FFE7D8"/>
<circle cx="97.5" cy="49.5" r="1.5" fill="#FFE7D8"/>
<circle cx="97.5" cy="73.5" r="1.5" fill="#FFE7D8"/>
<circle cx="97.5" cy="97.5" r="1.5" fill="#FFE7D8"/>
<circle cx="97.5" cy="37.5" r="1.5" fill="#FFE7D8"/>
<circle cx="97.5" cy="85.5" r="1.5" fill="#FFE7D8"/>
<circle cx="97.5" cy="109.5" r="1.5" fill="#FFE7D8"/>
<circle cx="265.5" cy="1.5" r="1.5" fill="#FFE7D8"/>
<circle cx="265.5" cy="73.5" r="1.5" fill="#FFF4ED"/>
<circle cx="265.5" cy="97.5" r="1.5" fill="#FFE7D8"/>
<circle cx="265.5" cy="61.5" r="1.5" fill="#FFE7D8"/>
<circle cx="265.5" cy="85.5" r="1.5" fill="#FFE7D8"/>
<circle cx="265.5" cy="109.5" r="1.5" fill="#FFF4ED"/>
<circle cx="181.5" cy="1.5" r="1.5" fill="#FFE7D8"/>
<circle cx="181.5" cy="49.5" r="1.5" fill="#FFF4ED"/>
<circle cx="181.5" cy="73.5" r="1.5" fill="#FFE7D8"/>
<circle cx="181.5" cy="13.5" r="1.5" fill="#FFE7D8"/>
<circle cx="181.5" cy="61.5" r="1.5" fill="#FFE7D8"/>
<circle cx="181.5" cy="37.5" r="1.5" fill="#FFF4ED"/>
<circle cx="181.5" cy="85.5" r="1.5" fill="#FFE7D8"/>
</svg>
