<svg width="38" height="38" viewBox="0 0 38 38" fill="none" xmlns="http://www.w3.org/2000/svg">
<path d="M19 0.25C15.2916 0.25 11.6665 1.34967 8.58307 3.40994C5.49965 5.47022 3.09641 8.39857 1.67727 11.8247C0.258124 15.2508 -0.113188 19.0208 0.610285 22.6579C1.33376 26.2951 3.11952 29.636 5.74176 32.2583C8.36399 34.8805 11.7049 36.6662 15.3421 37.3897C18.9792 38.1132 22.7492 37.7419 26.1753 36.3227C29.6014 34.9036 32.5298 32.5004 34.5901 29.4169C36.6503 26.3335 37.75 22.7084 37.75 19C37.7445 14.0289 35.7674 9.2629 32.2522 5.74778C28.7371 2.23265 23.9711 0.255459 19 0.25ZM7.91313 32.2038C9.02596 30.2442 10.6383 28.6146 12.5858 27.481C14.5333 26.3473 16.7465 25.7501 19 25.7501C21.2535 25.7501 23.4667 26.3473 25.4142 27.481C27.3618 28.6146 28.9741 30.2442 30.0869 32.2038C26.9836 34.8169 23.057 36.25 19 36.25C14.943 36.25 11.0164 34.8169 7.91313 32.2038ZM31.2194 31.1631C29.3562 28.0481 26.3692 25.7664 22.8738 24.7881C24.4989 23.9238 25.7884 22.5409 26.537 20.8592C27.2855 19.1776 27.4502 17.294 27.0049 15.5079C26.5595 13.7219 25.5296 12.1362 24.0791 11.0029C22.6286 9.86971 20.8407 9.25413 19 9.25413C17.1593 9.25413 15.3715 9.86971 13.9209 11.0029C12.4704 12.1362 11.4405 13.7219 10.9952 15.5079C10.5498 17.294 10.7145 19.1776 11.463 20.8592C12.2116 22.5409 13.5011 23.9238 15.1263 24.7881C11.6309 25.7664 8.64384 28.0481 6.78063 31.1631C4.37435 28.7482 2.73757 25.6745 2.07697 22.33C1.41637 18.9855 1.76157 15.5203 3.06899 12.3718C4.37641 9.22339 6.58742 6.53295 9.42283 4.64022C12.2582 2.74749 15.5909 1.73735 19 1.73735C22.4091 1.73735 25.7418 2.74749 28.5772 4.64022C31.4126 6.53295 33.6236 9.22339 34.931 12.3718C36.2384 15.5203 36.5837 18.9855 35.923 22.33C35.2625 25.6745 33.6257 28.7482 31.2194 31.1631ZM19 24.25C17.665 24.25 16.3599 23.8541 15.2499 23.1124C14.1399 22.3707 13.2747 21.3165 12.7638 20.0831C12.2529 18.8497 12.1193 17.4925 12.3797 16.1831C12.6402 14.8738 13.283 13.671 14.227 12.727C15.171 11.783 16.3738 11.1401 17.6831 10.8797C18.9925 10.6192 20.3497 10.7529 21.5831 11.2638C22.8165 11.7747 23.8707 12.6399 24.6124 13.7499C25.3541 14.8599 25.75 16.165 25.75 17.5C25.75 19.2902 25.0388 21.0071 23.773 22.273C22.5071 23.5388 20.7902 24.25 19 24.25Z" fill="#F6820C"/>
</svg>
