<svg width="28" height="28" viewBox="0 0 28 28" fill="none" xmlns="http://www.w3.org/2000/svg">
<path d="M14.0001 0.666656C12.2491 0.666656 10.5153 1.01153 8.89763 1.6816C7.27996 2.35166 5.81011 3.33378 4.57199 4.5719C2.07151 7.07238 0.666748 10.4638 0.666748 14C0.666748 17.5362 2.07151 20.9276 4.57199 23.4281C5.81011 24.6662 7.27996 25.6483 8.89763 26.3184C10.5153 26.9884 12.2491 27.3333 14.0001 27.3333C17.5363 27.3333 20.9277 25.9286 23.4282 23.4281C25.9287 20.9276 27.3334 17.5362 27.3334 14H24.6667C24.6667 16.829 23.5429 19.5421 21.5426 21.5425C19.5422 23.5428 16.8291 24.6667 14.0001 24.6667C11.1711 24.6667 8.458 23.5428 6.45761 21.5425C4.45722 19.5421 3.33341 16.829 3.33341 14C3.33341 11.171 4.45722 8.45791 6.45761 6.45752C8.458 4.45713 11.1711 3.33332 14.0001 3.33332V0.666656ZM23.0401 1.99999C22.8001 2.00201 22.5705 2.09771 22.4001 2.26666L20.7734 3.87999L24.1067 7.21332L25.7334 5.59999C26.0801 5.25332 26.0801 4.66666 25.7334 4.33332L23.6667 2.26666C23.4934 2.09332 23.2667 1.99999 23.0401 1.99999ZM19.8267 4.82666L10.0001 14.6667V18H13.3334L23.1601 8.15999L19.8267 4.82666Z" fill="black"/>
</svg>
